<?xml version="1.0" standalone="no"?>
<!DOCTYPE svg PUBLIC "-//W3C//DTD SVG 20010904//EN"
 "http://www.w3.org/TR/2001/REC-SVG-20010904/DTD/svg10.dtd">
<svg version="1.0" xmlns="http://www.w3.org/2000/svg"
 width="984.000000pt" height="984.000000pt" viewBox="0 0 984.000000 984.000000"
 preserveAspectRatio="xMidYMid meet">
<metadata>
Created by potrace 1.11, written by Peter Selinger 2001-2013
</metadata>
<g transform="translate(0.000000,984.000000) scale(0.100000,-0.100000)"
fill="#000000" stroke="none">
<path d="M0 4920 l0 -4920 4920 0 4920 0 0 4920 0 4920 -4920 0 -4920 0 0
-4920z m5965 3906 c17 -14 23 -26 16 -30 -14 -9 -61 22 -61 40 0 20 13 17 45
-10z m-395 -346 c0 -5 -2 -10 -4 -10 -3 0 -8 5 -11 10 -3 6 -1 10 4 10 6 0 11
-4 11 -10z m-446 -95 c-4 -8 -10 -13 -15 -10 -4 3 -6 12 -3 20 4 8 10 13 15
10 4 -3 6 -12 3 -20z m1356 -15 c0 -5 -7 -7 -15 -4 -8 4 -15 8 -15 10 0 2 7 4
15 4 8 0 15 -4 15 -10z m-165 -21 c12 -19 -5 -23 -22 -6 -16 16 -16 17 -1 17
9 0 20 -5 23 -11z m156 -61 c0 -10 2 -10 6 0 6 15 23 6 23 -14 0 -12 -4 -13
-22 -3 -17 9 -24 9 -33 -5 -15 -20 -35 -21 -35 -1 0 26 59 48 61 23z m79 -77
c0 -14 -5 -18 -20 -14 -16 4 -18 8 -9 19 16 20 29 17 29 -5z m90 -68 c0 -14
-19 -38 -25 -32 -8 8 5 39 16 39 5 0 9 -3 9 -7z m-125 -94 c11 -17 -1 -21 -15
-4 -8 9 -8 15 -2 15 6 0 14 -5 17 -11z m-467 -75 c2 -1 -6 -18 -18 -38 -21
-39 -26 -61 -11 -52 5 4 21 2 36 -4 23 -9 25 -13 15 -25 -16 -19 -29 -19 -52
2 -18 16 -20 15 -41 -6 l-22 -23 33 4 c44 6 42 -15 -5 -47 -40 -26 -78 -36
-55 -13 23 23 14 41 -15 34 -16 -4 -38 -8 -49 -10 -48 -8 -101 -58 -122 -116
-6 -16 -17 -25 -33 -25 -18 0 -29 -11 -47 -49 -12 -26 -30 -55 -38 -63 -13
-14 -17 -13 -35 6 -18 20 -19 23 -5 49 8 15 21 38 28 52 7 14 22 33 33 42 11
10 16 17 12 18 -12 0 -60 -32 -77 -52 -9 -11 -20 -15 -27 -10 -9 6 -6 18 14
45 14 20 30 37 34 37 4 0 26 16 49 35 23 19 46 32 52 29 6 -4 6 -10 -1 -17 -6
-6 -11 -18 -11 -26 0 -11 4 -10 20 4 12 11 18 26 15 35 -3 10 1 23 10 30 8 7
15 23 15 36 0 18 9 28 37 39 21 9 45 23 55 32 17 15 18 15 18 -1 0 -9 -12 -28
-27 -41 -36 -30 -24 -42 22 -21 34 16 47 36 23 36 -22 0 0 11 30 15 39 4 52
12 52 31 0 8 7 14 15 14 8 0 19 9 25 21 10 17 14 18 28 7 9 -7 18 -13 20 -14z
m-164 -9 c-4 -8 -10 -15 -15 -15 -5 0 -9 7 -9 15 0 8 7 15 15 15 9 0 12 -6 9
-15z m686 -31 c0 -8 -4 -14 -10 -14 -5 0 -10 9 -10 21 0 11 5 17 10 14 6 -3
10 -13 10 -21z m-372 -25 c12 1 22 -3 22 -8 0 -4 19 -16 43 -26 23 -10 45 -20
50 -23 4 -2 7 8 7 22 0 14 5 26 11 26 6 0 8 -8 5 -18 -4 -12 2 -21 24 -30 16
-8 34 -11 40 -7 5 3 25 -5 43 -19 l34 -26 21 23 c12 13 22 30 22 37 0 11 3 11
12 2 7 -7 22 -12 35 -12 13 0 40 -11 61 -24 l38 -24 -4 29 c-3 20 -10 29 -22
29 -13 0 -17 5 -13 20 6 21 18 26 28 10 4 -6 13 -5 25 3 16 9 24 9 40 -1 11
-6 26 -12 34 -12 8 0 28 -13 46 -30 38 -36 40 -36 40 -10 0 11 -4 20 -10 20
-5 0 -10 7 -10 15 0 8 5 15 10 15 6 0 10 -5 10 -10 0 -6 6 -5 14 2 7 7 11 19
9 26 -4 8 0 10 11 6 8 -3 18 -16 22 -27 7 -25 33 -57 45 -57 4 0 11 9 14 21 5
16 10 18 21 8 8 -6 14 -17 14 -23 0 -17 48 -79 62 -82 35 -6 55 -12 72 -19 14
-6 24 -3 36 13 10 12 20 18 24 15 3 -3 1 -12 -6 -20 -8 -10 -8 -12 4 -8 9 4
29 -6 49 -24 18 -17 40 -31 49 -31 8 0 28 -7 44 -15 26 -14 31 -14 46 0 29 26
55 19 69 -20 8 -23 20 -37 37 -41 17 -4 23 -11 19 -21 -4 -11 -1 -13 11 -9 12
4 14 1 9 -14 -5 -15 -2 -20 12 -20 28 -1 69 -35 53 -45 -8 -5 -18 -2 -24 6
-21 26 -52 39 -65 26 -6 -6 -11 -17 -11 -24 0 -17 -11 -16 -38 3 -36 25 -39 7
-4 -27 26 -26 33 -28 38 -15 3 9 11 16 16 16 6 0 8 -6 5 -14 -3 -7 4 -26 15
-42 11 -16 17 -21 14 -10 -5 13 -2 17 8 13 8 -3 30 -9 48 -12 19 -4 50 -22 70
-41 20 -19 41 -34 47 -34 6 0 11 -15 11 -32 0 -22 11 -47 35 -77 38 -47 42
-60 23 -63 -7 0 -17 -2 -23 -2 -5 -1 -16 -5 -24 -10 -9 -6 -17 -3 -23 8 -14
24 -31 8 -23 -23 8 -30 43 -71 62 -71 7 0 13 -7 13 -15 0 -8 4 -15 10 -15 5 0
13 -12 16 -27 4 -16 19 -41 34 -58 15 -16 31 -41 35 -55 7 -23 7 -24 -11 -10
-10 8 -25 23 -32 33 -29 38 -60 8 -41 -41 6 -15 8 -44 4 -66 -4 -25 -1 -46 8
-60 20 -30 28 -68 17 -81 -9 -10 25 -92 49 -122 6 -7 7 -31 2 -63 -9 -54 -3
-101 19 -162 11 -29 11 -40 2 -51 -10 -12 -10 -16 1 -20 22 -8 31 -58 13 -75
-11 -11 -12 -20 -3 -39 8 -17 7 -27 -1 -35 -9 -9 -12 -9 -12 0 0 7 -14 27 -32
43 -17 18 -28 24 -24 14 4 -11 2 -15 -6 -13 -7 3 -15 13 -18 24 -6 24 -51 84
-62 84 -4 0 -8 -9 -8 -19 0 -37 -49 -33 -50 4 -1 12 -39 63 -40 52 0 -16 33
-107 41 -112 4 -3 6 -12 3 -20 -4 -8 -10 -12 -15 -9 -10 6 -12 -7 -9 -44 2
-23 -15 -52 -31 -52 -5 0 -9 5 -9 10 0 11 -8 23 -51 71 -31 34 -39 36 -39 9 0
-11 7 -20 15 -20 8 0 15 -7 15 -15 0 -9 7 -18 15 -21 21 -8 51 -92 37 -106 -8
-8 -16 -1 -31 23 -12 19 -21 40 -21 47 0 6 -11 12 -24 12 -19 0 -26 -7 -31
-31 -4 -18 -3 -35 4 -42 6 -6 11 -18 11 -26 0 -9 8 -25 16 -36 15 -19 15 -19
8 10 -7 27 -6 29 9 17 8 -7 14 -23 12 -34 -6 -29 -12 -33 -29 -19 -8 6 -20 10
-27 9 -8 -2 -15 8 -17 21 -2 13 -10 31 -18 38 -8 8 -14 21 -14 28 0 8 -9 19
-20 25 -11 6 -20 18 -20 26 0 9 -7 22 -15 31 -14 13 -17 12 -26 -16 -12 -33
-34 -32 -26 1 7 26 -2 48 -19 48 -13 0 -19 18 -15 47 1 6 -3 14 -8 17 -5 3 -8
-2 -7 -11 0 -9 -5 -18 -12 -20 -9 -4 -11 3 -7 25 3 21 -1 36 -16 53 -15 16
-23 20 -26 11 -3 -6 -10 -10 -16 -6 -7 3 -2 -3 11 -14 23 -21 29 -42 13 -42
-6 0 -18 14 -28 30 -9 17 -23 30 -29 30 -7 0 -14 4 -16 9 -1 4 -13 12 -25 15
-17 5 -23 3 -23 -7 0 -9 -5 -17 -12 -19 -13 -5 18 -58 34 -58 6 0 4 -7 -3 -16
-11 -14 -10 -18 6 -31 11 -8 19 -20 17 -28 -1 -7 2 -16 8 -20 5 -3 10 -21 10
-40 0 -18 7 -41 16 -49 8 -9 11 -16 6 -16 -5 0 -9 -11 -9 -25 0 -14 3 -25 7
-25 4 0 8 -24 8 -52 -1 -69 17 -133 52 -188 27 -42 29 -51 26 -133 -1 -62 2
-91 11 -99 15 -12 18 -48 4 -48 -6 0 -17 10 -25 22 l-16 22 0 -26 c0 -15 6
-33 14 -40 15 -15 28 -63 31 -118 2 -19 10 -53 18 -75 9 -22 16 -48 17 -58 0
-10 6 -28 14 -40 8 -12 17 -34 20 -49 2 -14 10 -37 17 -49 6 -13 12 -54 13
-91 0 -65 1 -67 14 -42 8 15 15 64 17 110 2 46 6 88 10 94 4 6 8 91 10 188 3
210 1 192 20 192 19 0 19 16 -2 101 -9 38 -13 72 -10 76 12 11 59 -16 64 -37
3 -11 8 -20 12 -21 3 0 16 -2 28 -5 25 -4 39 11 25 29 -11 13 -9 29 7 70 10
26 34 39 29 16 -2 -6 3 -14 11 -17 8 -3 11 0 7 7 -10 15 36 15 52 -1 9 -9 13
-7 18 6 6 17 -20 56 -38 56 -5 0 -18 9 -29 19 -24 22 -18 42 9 34 13 -3 22 7
36 42 18 42 22 45 47 40 23 -5 28 -3 26 13 0 10 10 32 23 49 20 24 32 29 65
29 40 -1 40 -1 38 34 l-2 35 10 -30 c6 -16 35 -55 64 -85 105 -110 128 -177
126 -370 -2 -214 -7 -278 -31 -385 -11 -55 -32 -152 -45 -215 -34 -158 -64
-242 -129 -358 -30 -54 -65 -118 -78 -142 -47 -92 -198 -210 -266 -210 -17 0
-18 -15 -20 -187 -2 -104 -7 -236 -13 -295 -11 -111 1 -339 22 -423 26 -104
77 -229 128 -315 31 -52 65 -114 75 -136 26 -60 34 -141 18 -188 -12 -35 -20
-96 -22 -152 0 -11 -11 -34 -25 -50 -14 -16 -25 -32 -25 -35 0 -4 -13 -21 -30
-39 -16 -18 -30 -35 -30 -39 0 -4 -11 -14 -25 -21 -14 -7 -30 -26 -37 -42 -7
-15 -16 -28 -20 -28 -4 0 -25 -18 -47 -40 -22 -22 -41 -40 -44 -40 -2 0 -25
-19 -49 -42 -106 -101 -184 -168 -195 -168 -7 0 -13 -4 -13 -9 0 -5 -26 -29
-57 -55 -32 -25 -65 -52 -73 -58 -28 -24 -130 -98 -135 -98 -3 0 -45 -24 -93
-53 -150 -92 -469 -258 -597 -310 -154 -63 -449 -147 -605 -173 -68 -11 -323
-12 -337 -1 -7 5 -13 6 -13 3 0 -4 -9 -2 -20 4 -11 6 -18 16 -14 21 3 6 -6 21
-21 34 -43 40 -74 165 -40 165 6 0 7 3 0 8 -12 9 -35 66 -42 105 -4 20 -2 27
8 25 9 -2 14 6 14 25 -1 15 3 27 8 27 5 0 7 7 3 15 -3 8 0 15 6 15 6 0 9 3 6
6 -4 3 0 17 7 31 8 15 11 31 8 36 -3 6 -2 7 4 4 5 -3 16 3 24 14 41 60 59 71
96 64 35 -6 35 -6 31 23 -4 27 -2 29 14 18 10 -6 18 -17 18 -24 0 -8 6 -12 13
-9 6 2 11 13 9 23 -7 44 -6 57 5 61 7 3 16 -9 20 -28 8 -28 13 -32 46 -34 30
-2 37 1 37 17 0 10 -5 18 -10 18 -7 0 -7 6 0 20 6 11 17 20 25 20 18 0 23 27
12 73 -10 39 -30 45 -35 11 -3 -18 -7 -28 -30 -84 l-11 -25 -7 22 c-3 13 -10
23 -15 23 -6 0 -7 28 -3 65 5 45 3 73 -6 89 -9 17 -9 29 -1 43 5 11 6 24 1 29
-4 5 -12 29 -17 54 -7 35 -13 45 -28 45 -14 0 -21 -8 -23 -27 -3 -28 -16 -36
-26 -19 -10 16 -46 0 -46 -20 0 -11 -7 -19 -16 -19 -12 0 -14 8 -9 44 9 55 1
70 -26 56 -21 -12 -25 -50 -9 -79 6 -13 5 -27 -3 -45 -14 -30 -20 -32 -41 -11
-10 10 -17 12 -21 4 -4 -6 -2 -16 4 -22 6 -6 11 -19 11 -29 0 -10 5 -18 10
-18 6 0 10 -7 10 -15 0 -8 -4 -15 -8 -15 -15 0 -32 24 -32 47 0 32 -25 29 -55
-5 -22 -25 -24 -25 -31 -9 -5 14 1 25 19 40 20 16 26 30 24 50 -4 30 -17 49
-17 24 0 -9 -4 -19 -10 -22 -6 -3 -7 1 -4 9 9 23 -19 20 -34 -4 -7 -11 -8 -20
-3 -20 10 0 2 -48 -10 -56 -5 -3 -9 5 -9 17 0 12 -3 19 -7 16 -3 -4 -15 0 -25
10 -17 15 -18 15 -19 -13 -2 -39 -2 -35 6 -73 5 -25 4 -32 -6 -29 -7 2 -16 15
-19 28 -6 25 -30 40 -30 18 0 -7 4 -40 10 -72 11 -67 6 -84 -11 -40 -21 57
-30 137 -15 153 12 16 66 110 66 117 0 14 -19 0 -23 -16 -6 -23 -37 -27 -37
-5 0 18 -11 19 -29 2 -11 -10 -14 -9 -18 2 -5 11 -7 11 -14 0 -8 -11 -11 -11
-20 4 -10 18 -12 18 -37 -5 -15 -12 -21 -16 -14 -7 6 9 9 19 5 22 -3 4 -2 12
4 19 12 17 17 78 6 78 -4 0 -14 -9 -21 -21 -13 -20 -14 -20 -27 -2 -13 17 -15
15 -29 -19 -9 -21 -16 -48 -15 -60 0 -21 1 -22 12 -5 7 10 21 28 31 40 l19 22
-7 -35 c-4 -19 -8 -53 -9 -74 -2 -47 -27 -63 -27 -17 0 16 -4 32 -9 35 -13 9
-21 -35 -10 -56 7 -14 6 -18 -5 -18 -8 0 -18 5 -22 12 -14 23 -13 103 2 162
20 77 12 129 -19 124 -18 -2 -25 -15 -38 -63 -12 -43 -21 -60 -32 -59 -21 2
-30 -28 -22 -67 5 -20 1 -38 -10 -55 -10 -16 -14 -35 -11 -50 8 -30 -3 -52
-15 -33 -6 10 -12 9 -28 -5 -21 -19 -21 -19 -21 3 0 19 -4 21 -22 16 -13 -4
-31 -17 -40 -29 l-18 -21 0 27 c0 14 5 28 11 30 6 2 12 19 14 38 2 19 3 40 4
47 1 6 8 19 17 27 8 9 11 16 5 16 -5 0 -16 -7 -25 -15 -8 -8 -17 -15 -20 -15
-14 0 4 71 23 91 12 13 21 26 21 31 0 17 70 79 87 76 15 -2 17 3 15 30 -2 21
3 41 13 52 16 18 16 18 -2 14 -27 -7 -55 49 -42 83 7 19 4 29 -11 45 -11 12
-20 28 -20 35 0 7 -5 13 -11 13 -5 0 -7 -5 -3 -12 5 -7 3 -8 -5 -3 -9 5 -10
10 -2 18 15 15 14 30 -2 25 -6 -3 -23 5 -37 18 -24 24 -24 24 -3 24 15 0 21 5
17 14 -3 7 2 16 11 20 10 3 15 12 12 19 -4 10 3 12 24 9 16 -2 31 -12 34 -22
3 -10 13 -21 22 -24 19 -8 40 8 24 18 -6 4 -11 11 -11 17 0 15 22 10 36 -9 13
-16 15 -16 29 2 14 18 20 15 16 -7 -2 -12 41 3 63 22 18 15 18 14 14 -21 -4
-41 13 -52 31 -20 10 16 10 16 11 0 0 -22 7 -23 26 -3 22 22 29 19 31 -16 3
-35 13 -51 20 -31 3 6 13 12 24 12 11 0 19 7 19 18 0 9 4 24 9 31 7 12 13 5
26 -26 16 -39 17 -40 45 -30 20 8 31 20 35 39 4 15 11 28 16 28 6 0 8 -4 5 -9
-8 -12 3 -41 15 -41 5 0 9 8 9 18 0 29 11 34 37 17 l23 -15 0 57 1 58 30 -35
30 -35 -7 40 c-8 49 -13 57 -27 52 -7 -2 -28 2 -47 9 -19 8 -55 12 -80 11 -25
-2 -69 2 -98 9 -30 6 -63 9 -74 6 -14 -3 -19 -1 -14 6 4 7 3 12 -3 12 -5 0
-12 -4 -15 -9 -3 -4 -21 -3 -41 3 -25 8 -35 17 -35 31 0 16 -2 17 -10 5 -5 -8
-12 -11 -15 -8 -14 13 8 29 31 24 35 -9 33 31 -2 44 -14 6 -22 15 -19 21 4 6
-2 13 -13 16 -13 3 -22 16 -25 36 -6 40 2 60 19 53 7 -3 16 -1 18 3 3 5 16 6
29 4 14 -3 31 2 40 12 10 9 17 12 17 6 0 -15 27 -14 32 1 5 15 124 21 147 9 9
-6 23 -5 35 1 10 6 31 11 45 13 86 8 158 19 172 26 8 4 49 9 90 9 41 1 90 7
109 12 61 18 101 38 95 47 -6 10 -24 9 -43 -3 -7 -4 -26 -5 -42 -1 -16 4 -37
2 -46 -3 -9 -5 -32 -6 -50 -2 -19 5 -34 4 -34 -1 0 -13 -28 -11 -36 3 -4 6 -3
8 3 5 5 -3 10 0 10 8 0 8 -3 15 -6 15 -12 0 -33 -17 -32 -26 2 -13 -120 -17
-132 -5 -13 13 -31 15 -23 3 2 -4 -11 -12 -30 -18 -21 -7 -34 -7 -34 -1 0 5
-7 4 -15 -3 -8 -7 -15 -9 -15 -6 0 4 -10 2 -21 -5 -17 -9 -23 -8 -30 2 -7 11
-12 12 -28 2 -16 -10 -22 -9 -37 8 -9 10 -23 19 -30 19 -12 0 -120 42 -156 61
-9 5 -31 6 -48 3 -18 -4 -30 -2 -30 4 0 6 -12 10 -26 9 -15 -1 -29 4 -31 11
-3 7 1 10 9 8 7 -3 24 8 36 25 19 23 21 33 13 43 -8 10 -9 16 -1 21 5 3 10 1
10 -6 0 -6 8 -9 20 -6 17 4 20 2 15 -14 -4 -11 -2 -19 4 -19 6 0 11 9 11 20 0
13 9 22 25 26 17 4 23 10 17 18 -13 17 -9 79 6 84 7 2 11 -2 10 -10 -2 -8 6
-13 19 -13 12 0 25 -4 29 -8 4 -4 16 -7 28 -7 19 0 19 -1 2 -13 -20 -15 -13
-67 10 -67 10 0 11 6 4 26 -13 34 -13 37 8 29 9 -4 23 -8 29 -9 18 -3 50 -39
46 -52 -4 -11 60 -28 140 -39 36 -5 50 -12 56 -27 7 -19 8 -18 39 10 18 17 34
26 37 21 3 -4 12 -6 20 -2 11 4 15 -2 15 -21 0 -14 6 -26 13 -26 18 0 42 18
43 32 0 7 2 21 2 31 3 25 32 21 32 -4 0 -17 3 -19 14 -10 15 13 19 184 3 174
-5 -3 -6 -16 -2 -30 5 -22 3 -21 -25 10 -16 19 -30 41 -30 48 0 8 -5 21 -11
29 -8 11 -9 7 -6 -18 4 -35 -8 -51 -26 -33 -8 8 -8 11 1 11 18 0 15 17 -6 38
-10 10 -21 26 -25 35 -8 21 -31 22 -47 2 -7 -8 -26 -15 -42 -15 -16 0 -42 -7
-58 -15 -17 -9 -30 -11 -30 -5 0 13 -37 13 -45 0 -3 -5 -12 -10 -18 -9 -9 0
-9 2 1 6 23 9 13 25 -13 19 -19 -5 -28 -1 -41 19 -16 24 -78 49 -117 47 -10 0
-30 12 -45 27 -15 15 -34 30 -43 34 -9 3 -25 24 -35 46 -11 22 -25 41 -32 41
-10 0 -12 13 -6 58 8 67 13 79 26 61 10 -14 7 -2 -9 38 -4 11 -3 14 6 9 9 -6
11 1 6 28 -5 22 -3 36 3 36 6 0 14 15 17 33 4 17 11 34 16 37 8 6 30 123 31
172 1 15 4 25 8 23 4 -2 6 38 4 90 -2 63 0 95 8 95 6 0 8 11 6 25 -3 14 -1 25
5 25 5 0 4 6 -2 14 -7 9 -8 17 -2 20 5 3 7 14 4 24 -2 11 2 34 10 53 11 27 11
43 2 79 -6 25 -10 77 -8 115 6 133 5 170 -2 188 -7 17 0 92 12 126 4 11 -3 8
-21 -9 l-27 -24 -6 22 c-3 12 -9 22 -14 22 -4 0 -17 10 -29 22 -15 16 -17 24
-8 30 10 6 8 8 -4 8 -9 0 -19 -6 -21 -12 -3 -7 -6 -2 -6 11 -1 16 -5 21 -16
18 -8 -4 -17 -1 -21 4 -3 6 -15 9 -25 6 -10 -3 -21 0 -24 7 -4 8 -6 8 -10 0
-5 -9 -13 -8 -33 1 -15 8 -39 18 -54 24 -17 6 -28 18 -28 29 0 18 -18 42 -31
42 -4 0 -5 -16 -2 -35 6 -40 -8 -46 -31 -14 -13 19 -43 19 -32 0 9 -13 -61 -6
-78 8 -9 7 -22 11 -30 8 -8 -3 -26 3 -40 14 -13 10 -39 22 -58 26 -18 3 -35 9
-38 13 -3 4 -24 11 -47 17 -32 8 -43 8 -44 -1 0 -6 -3 -4 -6 4 -8 20 -34 39
-54 40 -9 0 -19 9 -22 20 -3 12 -14 20 -26 20 -12 0 -24 7 -27 15 -4 8 -10 12
-15 9 -5 -3 -9 0 -9 5 0 6 5 11 11 11 5 0 8 4 4 10 -9 15 -34 0 -28 -17 4 -11
1 -14 -13 -11 -22 4 -21 38 2 51 8 5 12 12 10 16 -3 4 8 7 23 6 20 -1 28 3 27
14 -1 9 6 15 17 15 20 -2 23 12 5 19 -10 3 -9 9 4 23 10 12 14 29 11 47 -3 15
-1 27 5 27 15 0 33 -26 24 -35 -4 -4 3 -1 16 6 17 11 19 15 7 17 -8 2 -15 8
-15 13 0 6 4 7 10 4 6 -3 7 1 4 9 -6 16 -3 17 34 20 23 1 48 66 30 78 -10 6
-9 11 5 19 25 15 21 32 -8 27 -21 -4 -23 -3 -14 13 5 11 12 19 15 19 3 0 2 -4
-1 -10 -4 -6 5 -10 20 -10 19 0 24 4 18 13 -4 6 -9 28 -9 47 -3 75 -9 100 -22
100 -7 0 -10 5 -7 10 3 6 0 10 -8 10 -12 0 -11 7 4 37 17 34 18 39 4 49 -8 6
-15 16 -15 23 0 6 -12 11 -27 11 -24 1 -26 2 -13 13 20 16 24 97 5 97 -7 0
-16 -8 -20 -17 -6 -17 -8 -16 -24 3 -9 11 -23 23 -31 27 -10 3 -7 6 8 6 12 1
22 -4 22 -11 0 -6 3 -9 6 -6 3 4 1 16 -6 27 -7 14 -7 21 0 21 5 0 10 -5 10
-12 0 -6 7 -4 18 5 19 17 25 47 10 47 -15 0 -36 64 -24 72 8 5 7 14 -2 29 -8
13 -9 18 -2 14 7 -4 10 -1 8 8 -2 9 2 16 7 16 6 0 9 -6 7 -14 -1 -7 3 -17 9
-21 8 -4 9 -3 5 5 -4 6 -3 18 3 25 9 11 6 15 -14 20 -32 8 -33 26 -1 26 29 0
39 21 26 56 -13 34 -13 37 5 30 17 -6 21 19 5 29 -13 8 -5 40 18 75 9 14 17
29 17 33 0 4 5 11 10 15 6 4 12 23 13 41 2 30 42 100 62 109 4 1 5 16 2 32 -3
21 1 32 12 36 9 3 16 11 16 16 0 6 7 16 16 23 14 9 14 16 5 33 -10 18 -9 23 4
28 24 10 85 -5 80 -19 -7 -17 11 -41 24 -33 20 12 12 42 -14 54 -27 13 -30 19
-15 42 8 12 12 12 18 2 7 -10 11 -10 22 3 7 8 20 15 29 15 13 0 13 -2 2 -9
-10 -7 -11 -10 0 -16 7 -5 19 0 30 13 9 12 22 22 28 22 6 0 11 7 11 15 0 8 5
15 10 15 12 0 -6 40 -24 53 -6 5 -2 7 12 4 14 -3 26 1 32 11 8 15 11 15 20 2
7 -10 12 -12 18 -4 4 6 17 13 29 16 16 4 23 0 27 -15 4 -16 8 -18 19 -9 14 12
27 7 27 -10 0 -5 -5 -6 -12 -2 -7 4 -8 3 -4 -4 9 -15 33 -16 38 -1 2 7 12 7
30 0 29 -11 80 8 104 39 10 12 14 12 28 1 14 -12 16 -11 10 5 -5 15 -4 16 6 8
9 -9 23 -7 58 9 53 23 112 38 112 28 -1 -12 -73 -61 -90 -61 -22 0 -44 -25
-35 -40 9 -15 39 -12 74 8 24 13 35 15 49 6 23 -15 56 10 66 49 6 26 12 29 64
31 13 1 29 9 36 19 18 23 29 22 41 -5 8 -19 6 -25 -9 -33 -28 -15 -30 -32 -4
-38 26 -7 38 2 41 30 0 13 6 19 14 16 7 -3 13 2 13 11 0 24 27 19 33 -6 7 -26
-7 -46 -36 -50 -15 -2 -21 -9 -19 -20 2 -11 -3 -18 -14 -18 -13 0 -14 -3 -4
-15 15 -17 40 -20 40 -4 0 6 7 9 15 5 8 -3 15 0 15 7 0 8 4 7 11 -3 8 -11 12
-12 16 -2 2 6 11 12 20 12 8 0 28 9 44 21 23 16 29 17 29 5 0 -18 20 -32 29
-20 9 13 72 37 104 39 17 1 48 20 82 50 30 27 61 50 70 51 41 6 71 40 67 75
-1 6 11 11 61 24 4 2 11 3 15 4 5 0 27 20 50 42 33 34 49 42 81 44 26 2 51 11
71 29 28 23 49 30 87 29 7 0 12 2 11 6 -2 21 4 31 22 31 11 0 20 -4 20 -9 0
-5 20 -9 45 -8 44 2 46 3 40 27 -10 38 -23 47 -40 24 -8 -10 -15 -14 -15 -7 0
6 5 15 10 18 7 4 3 19 -10 39 -23 37 -16 50 20 41 14 -3 35 -6 48 -6z m-542
-54 c-4 -14 -10 -25 -15 -25 -9 0 -6 26 6 60 9 24 16 -6 9 -35z m839 36 c3 -5
1 -12 -5 -16 -5 -3 -10 1 -10 9 0 18 6 21 15 7z m-1045 -105 c0 -3 -4 -8 -10
-11 -5 -3 -10 -1 -10 4 0 6 5 11 10 11 6 0 10 -2 10 -4z m65 -25 c-3 -6 -11
-11 -17 -11 -6 0 -6 6 2 15 14 17 26 13 15 -4z m-1485 -21 c0 -5 -2 -10 -4
-10 -3 0 -8 5 -11 10 -3 6 -1 10 4 10 6 0 11 -4 11 -10z m1807 -10 c-10 -17
-67 -43 -75 -35 -8 8 53 53 69 52 13 -1 14 -5 6 -17z m-1652 -24 c-21 -31 -35
-33 -35 -6 0 12 9 24 23 29 30 12 32 7 12 -23z m226 -3 c-8 -15 -10 -15 -11
-2 0 17 10 32 18 25 2 -3 -1 -13 -7 -23z m829 -13 c0 -5 -6 -10 -14 -10 -7 0
-25 -9 -40 -21 -14 -11 -26 -16 -26 -10 0 11 57 51 73 51 4 0 7 -4 7 -10z
m245 -20 c-10 -11 -23 -20 -28 -20 -6 0 0 11 13 25 27 29 42 25 15 -5z m-1245
-55 c-14 -17 -50 -20 -50 -4 0 6 9 9 20 6 11 -3 20 -1 20 4 0 5 5 9 11 9 8 0
8 -5 -1 -15z m910 1 c0 -17 -14 -29 -23 -20 -8 8 3 34 14 34 5 0 9 -6 9 -14z
m410 0 c0 -8 -4 -18 -10 -21 -5 -3 -10 3 -10 14 0 12 5 21 10 21 6 0 10 -6 10
-14z m-1390 -25 c0 -17 -27 -37 -37 -27 -6 6 20 46 29 46 5 0 8 -9 8 -19z
m1384 -37 c10 -25 8 -29 -23 -47 -42 -24 -44 -22 -21 23 22 43 34 50 44 24z
m-579 -34 c3 -5 1 -10 -4 -10 -6 0 -11 5 -11 10 0 6 2 10 4 10 3 0 8 -4 11
-10z m265 -65 c0 -8 -4 -15 -10 -15 -5 0 -7 7 -4 15 4 8 8 15 10 15 2 0 4 -7
4 -15z m-1085 -205 c3 -5 -1 -10 -10 -10 -9 0 -13 5 -10 10 3 6 8 10 10 10 2
0 7 -4 10 -10z m3625 -146 c0 -16 -16 -19 -25 -4 -8 13 4 32 16 25 5 -4 9 -13
9 -21z m-3720 -74 c0 -5 -5 -10 -11 -10 -5 0 -7 5 -4 10 3 6 8 10 11 10 2 0 4
-4 4 -10z m-166 -478 c-7 -15 -12 -37 -16 -69 -1 -6 -7 -9 -15 -6 -17 7 -17
19 2 27 8 3 12 11 9 19 -2 7 0 27 7 43 6 17 13 24 16 16 3 -7 1 -20 -3 -30z
m-74 -204 c0 -18 -2 -20 -9 -8 -6 8 -7 18 -5 22 9 14 14 9 14 -14z m94 -54
c-13 -12 -24 -26 -24 -33 0 -6 -7 -11 -15 -11 -8 0 -15 -4 -15 -9 0 -5 -7 -11
-15 -15 -8 -3 -15 -3 -15 0 0 10 79 84 89 84 5 0 7 10 5 23 -4 20 -4 20 5 2 7
-16 3 -25 -15 -41z m-94 -19 c0 -8 -2 -15 -4 -15 -2 0 -6 7 -10 15 -3 8 -1 15
4 15 6 0 10 -7 10 -15z m-5 -53 c-8 -8 -25 10 -19 20 4 6 9 5 15 -3 4 -7 6
-15 4 -17z m102 -31 c0 -10 -7 -17 -13 -14 -7 3 -10 11 -7 19 8 20 22 17 20
-5z m-123 -17 c8 -21 8 -24 -5 -24 -5 0 -7 5 -4 10 3 6 1 10 -4 10 -6 0 -11 5
-11 10 0 16 17 12 24 -6z m3401 -34 c3 -5 1 -10 -4 -10 -6 0 -11 5 -11 10 0 6
2 10 4 10 3 0 8 -4 11 -10z m-3438 -32 c-3 -8 -6 -5 -6 6 -1 11 2 17 5 13 3
-3 4 -12 1 -19z m3932 -65 c10 -21 9 -28 -1 -34 -17 -11 -28 -11 -28 0 0 5 -6
11 -14 13 -10 2 -11 9 -5 26 11 30 33 28 48 -5z m83 -8 c4 -5 4 -13 1 -18 -6
-10 -42 30 -43 47 0 9 30 -11 42 -29z m-399 -41 c-7 -19 -23 -7 -23 18 0 17 3
18 14 8 8 -6 12 -18 9 -26z m247 -33 c0 -6 -4 -13 -10 -16 -5 -3 -10 1 -10 9
0 9 5 16 10 16 6 0 10 -4 10 -9z m-217 -28 c2 -5 7 -20 11 -35 7 -30 -8 -39
-17 -10 -2 9 -8 25 -12 35 -7 16 9 25 18 10z m-3403 -43 c0 -5 -4 -10 -9 -10
-6 0 -13 5 -16 10 -3 6 1 10 9 10 9 0 16 -4 16 -10z m3577 -10 c-3 -11 -1 -20
3 -20 4 0 6 -9 3 -20 -5 -19 -6 -19 -19 6 -18 35 -18 54 2 54 11 0 15 -6 11
-20z m-147 -30 c0 -5 -2 -10 -4 -10 -3 0 -8 5 -11 10 -3 6 -1 10 4 10 6 0 11
-4 11 -10z m-3565 -119 c3 -5 1 -12 -5 -16 -5 -3 -10 1 -10 9 0 18 6 21 15 7z
m-121 -17 c3 -8 2 -12 -4 -9 -6 3 -10 10 -10 16 0 14 7 11 14 -7z m-34 -4 c0
-5 -4 -10 -10 -10 -5 0 -10 5 -10 10 0 6 5 10 10 10 6 0 10 -4 10 -10z m80
-120 c0 -5 -4 -10 -10 -10 -5 0 -10 5 -10 10 0 6 5 10 10 10 6 0 10 -4 10 -10z
m3540 -46 c0 -8 -4 -14 -10 -14 -5 0 -10 9 -10 21 0 11 5 17 10 14 6 -3 10
-13 10 -21z m-3485 -4 c-27 -12 -35 -12 -35 0 0 6 12 10 28 9 24 0 25 -1 7 -9z
m112 -392 c9 23 34 12 76 -34 63 -69 83 -77 165 -62 37 6 72 10 77 8 6 -1 18
-3 28 -4 9 0 17 -6 17 -13 0 -8 7 -16 15 -19 8 -4 15 -11 15 -16 0 -6 -7 -8
-15 -4 -17 6 -65 -13 -65 -26 0 -5 -7 -2 -16 6 -21 21 -36 11 -28 -20 4 -14 2
-24 -5 -24 -6 0 -11 5 -11 11 0 8 -5 8 -15 -1 -16 -14 -10 -34 7 -24 7 5 9 2
5 -8 -3 -9 0 -21 6 -27 6 -6 8 -11 4 -11 -28 0 -57 -18 -57 -35 0 -8 -3 -16
-7 -16 -35 -6 -53 -5 -53 3 0 6 -6 8 -13 5 -8 -3 -20 3 -27 14 -10 13 -16 15
-21 7 -5 -8 -10 -1 -15 16 -4 19 -12 26 -23 23 -11 -3 -17 2 -17 14 0 10 3 16
7 14 3 -3 6 9 7 25 0 17 4 39 7 50 6 19 -2 25 -32 21 -7 -1 -13 2 -13 7 0 6
-11 13 -25 16 -24 6 -36 26 -15 26 6 0 10 -4 10 -10 0 -5 5 -10 11 -10 12 0 8
59 -5 95 -7 17 -6 17 4 5 9 -11 13 -12 17 -2z m-400 -150 c-3 -8 -6 -5 -6 6
-1 11 2 17 5 13 3 -3 4 -12 1 -19z m403 2 c0 -5 -5 -10 -11 -10 -5 0 -7 5 -4
10 3 6 8 10 11 10 2 0 4 -4 4 -10z m-424 -68 c-11 -10 -14 3 -8 33 l7 30 3
-28 c2 -16 1 -31 -2 -35z m32 23 c-3 -3 -9 2 -12 12 -6 14 -5 15 5 6 7 -7 10
-15 7 -18z m6 -71 c-21 -27 -46 -36 -72 -25 -9 4 33 59 52 67 36 16 47 -6 20
-42z m70 -17 c-1 -9 2 -14 7 -11 5 3 9 1 9 -5 0 -5 -3 -11 -7 -14 -5 -2 -2 -2
5 -1 13 4 33 -35 25 -48 -2 -5 5 -8 16 -8 10 0 22 -6 25 -12 5 -10 7 -10 12 0
3 6 10 10 15 6 5 -3 5 -14 -2 -26 -9 -18 -8 -19 10 -13 12 3 21 2 21 -2 0 -5
15 -8 32 -7 18 1 37 0 43 -4 12 -7 95 -10 95 -2 0 8 52 30 70 30 8 0 25 -7 37
-15 21 -14 24 -14 43 5 11 11 25 18 31 14 7 -4 7 -10 1 -16 -10 -10 7 -58 21
-58 5 0 5 5 2 10 -3 6 3 10 14 10 14 0 21 -6 21 -20 0 -18 16 -25 43 -21 4 0
7 -3 7 -9 0 -5 6 -10 14 -10 8 0 17 -6 19 -12 4 -9 8 -9 14 -3 14 17 43 18 37
0 -3 -8 -10 -12 -15 -9 -5 3 -16 -1 -24 -10 -10 -10 -12 -17 -5 -21 7 -4 3
-14 -10 -25 -30 -26 -41 -72 -23 -89 12 -11 17 -11 23 -1 6 10 10 9 16 -2 5
-8 17 -18 28 -21 12 -5 16 -13 11 -25 -8 -21 -16 -73 -8 -53 4 10 7 10 13 1 8
-13 -19 -113 -32 -118 -5 -2 -8 -12 -8 -22 0 -19 -32 -81 -56 -110 -19 -23
-22 -66 -4 -62 10 1 9 -2 -4 -13 -11 -8 -23 -15 -28 -15 -4 0 -8 -5 -8 -11 0
-6 9 -8 20 -4 11 4 20 2 20 -4 0 -6 -7 -11 -15 -11 -9 0 -20 -10 -25 -22 -5
-13 -9 -19 -9 -15 -1 5 -7 2 -15 -6 -15 -14 -16 -40 -3 -53 13 -13 7 -23 -15
-26 -13 -2 -24 -9 -24 -15 -1 -7 -2 -19 -3 -26 -1 -9 -11 -12 -33 -9 -26 4
-30 2 -25 -12 4 -9 1 -16 -6 -16 -11 0 -57 -61 -57 -77 0 -5 -16 -26 -35 -47
-39 -45 -73 -160 -54 -183 6 -7 8 -17 4 -23 -4 -6 -1 -17 5 -25 7 -8 9 -15 4
-15 -5 0 -2 -4 6 -10 10 -6 13 -23 11 -54 -1 -28 2 -46 8 -46 6 0 11 7 11 15
0 9 9 15 25 15 14 0 25 -6 25 -12 0 -7 3 -24 7 -38 3 -14 2 -22 -2 -18 -4 4
-14 0 -21 -10 -19 -24 -17 -32 5 -32 11 0 29 -12 40 -26 20 -25 26 -21 22 13
-1 6 3 14 9 18 15 10 23 -21 11 -44 -8 -14 -8 -22 -1 -26 6 -4 9 -28 8 -53 -3
-37 -7 -46 -20 -44 -9 1 -19 -2 -23 -8 -3 -5 -12 -10 -18 -10 -14 0 -38 48
-27 52 4 2 11 18 15 37 7 34 7 34 -16 17 -29 -20 -39 -20 -39 -1 0 7 -6 18
-13 22 -8 4 -24 24 -38 43 -30 44 -58 70 -75 70 -16 0 -44 55 -44 85 0 13 -7
26 -16 29 -12 4 -15 15 -12 36 3 20 0 30 -9 30 -7 0 -15 11 -19 25 -3 14 -10
22 -15 19 -6 -3 -7 20 -4 56 4 52 3 61 -10 56 -17 -6 -21 19 -4 29 7 5 3 15
-10 29 -20 22 -20 23 -4 38 10 8 25 18 33 22 8 3 5 4 -8 2 -23 -4 -43 19 -35
41 2 6 -4 16 -14 22 -15 8 -18 19 -16 60 2 32 -1 51 -8 51 -6 0 -8 8 -4 20 5
15 3 18 -9 14 -9 -3 -16 -1 -16 5 0 6 3 11 8 11 4 0 7 18 7 40 0 22 2 40 6 40
4 0 7 11 7 25 0 14 -5 25 -10 25 -5 0 -6 5 -3 10 5 8 11 7 21 -1 8 -7 14 -7
14 -1 0 5 -12 18 -27 27 -26 17 -26 18 -7 33 13 10 15 16 7 19 -7 3 -13 9 -13
14 0 6 5 7 10 4 6 -4 10 7 10 24 0 17 4 31 9 31 12 0 -8 73 -23 83 -8 5 -8 9
0 15 15 10 30 57 15 48 -14 -9 -14 0 0 26 9 16 8 23 -2 29 -11 7 -11 9 2 9 9
0 19 9 22 20 6 22 -8 28 -17 8 -4 -7 -4 -2 -1 12 16 71 16 80 1 80 -9 0 -16 7
-16 15 0 8 -9 15 -20 15 -11 0 -20 5 -20 10 0 6 4 10 9 10 17 0 21 32 6 46
-17 18 -20 44 -4 44 5 0 7 4 4 10 -4 6 -15 2 -27 -10 -12 -11 -25 -20 -29 -20
-11 0 -19 29 -10 35 5 2 12 21 15 40 4 19 10 35 14 35 14 0 61 47 54 55 -4 4
0 6 8 3 8 -3 14 -12 14 -21z m586 -127 c0 -5 -5 -10 -11 -10 -5 0 -7 5 -4 10
3 6 8 10 11 10 2 0 4 -4 4 -10z m20 -645 c0 -8 -4 -15 -10 -15 -5 0 -7 7 -4
15 4 8 8 15 10 15 2 0 4 -7 4 -15z m360 -69 c0 -3 -4 -8 -10 -11 -5 -3 -10 -1
-10 4 0 6 5 11 10 11 6 0 10 -2 10 -4z m-415 -116 c3 -5 1 -10 -4 -10 -6 0
-11 5 -11 10 0 6 2 10 4 10 3 0 8 -4 11 -10z m-95 -114 c0 -2 -7 -7 -16 -10
-8 -3 -12 -2 -9 4 6 10 25 14 25 6z m771 -151 c10 10 25 15 34 12 16 -7 20
-53 6 -76 -11 -18 -45 -6 -38 13 4 10 -5 18 -24 25 -30 10 -38 26 -16 34 6 2
14 -2 15 -10 3 -12 7 -11 23 2z m-86 -35 c8 -13 -5 -13 -25 0 -13 8 -13 10 2
10 9 0 20 -4 23 -10z m-568 -316 c-7 -8 12 -28 36 -37 9 -3 17 -13 17 -22 0
-8 4 -15 9 -15 5 0 11 -9 14 -20 3 -14 0 -20 -10 -20 -11 0 -13 -3 -5 -13 7
-8 7 -18 2 -27 -6 -8 -10 -22 -10 -30 0 -11 2 -12 8 -3 6 9 11 7 20 -7 8 -13
8 -20 2 -20 -12 0 -6 -46 9 -64 6 -7 6 -17 1 -26 -8 -12 -10 -10 -10 8 0 14
-4 21 -11 17 -6 -4 -9 0 -7 11 2 13 -3 19 -14 18 -10 -1 -18 5 -18 13 0 8 -5
11 -10 8 -8 -5 -7 -11 1 -21 6 -7 16 -11 21 -8 6 4 5 -3 -2 -15 -6 -12 -16
-19 -21 -15 -7 4 -9 -1 -7 -12 4 -21 -20 -54 -39 -54 -7 0 -13 -4 -13 -9 0
-10 -39 -26 -46 -19 -2 3 7 19 20 37 25 34 25 55 1 65 -9 3 -12 0 -8 -10 3 -7
0 -14 -6 -14 -6 0 -11 6 -11 14 0 8 -4 16 -10 18 -5 2 1 16 14 31 21 25 23 32
14 60 -6 18 -14 37 -18 42 -11 14 -10 75 0 75 5 0 12 -5 15 -11 10 -16 45 20
45 46 0 24 8 35 23 35 6 0 8 -3 4 -6z m-197 -274 c0 -11 -7 -20 -15 -20 -15 0
-21 21 -8 33 12 13 23 7 23 -13z m240 -127 c0 -18 -42 -45 -54 -33 -16 16 -15
41 2 58 15 15 19 16 35 2 9 -8 17 -20 17 -27z m245 -43 c3 -5 1 -10 -4 -10 -6
0 -11 5 -11 10 0 6 2 10 4 10 3 0 8 -4 11 -10z m-245 -35 c-7 -8 -24 -15 -39
-15 l-26 1 29 25 c20 17 32 22 39 15 7 -7 6 -15 -3 -26z m93 -21 c11 -11 -52
-56 -75 -52 -35 5 -31 22 10 40 42 18 56 21 65 12z m-134 -39 c9 -1 17 -9 19
-18 3 -12 -4 -17 -22 -17 -14 0 -28 5 -31 10 -3 6 -15 10 -26 10 -11 0 -19 7
-19 16 0 12 7 14 31 9 17 -4 39 -8 48 -10z m46 -116 c8 -11 -22 -38 -43 -39
-9 0 -8 7 5 25 20 27 29 30 38 14z m199 -8 c6 -10 -22 -37 -29 -29 -8 7 5 38
15 38 5 0 11 -4 14 -9z m-292 -83 c-7 -7 -12 -8 -12 -2 0 14 12 26 19 19 2 -3
-1 -11 -7 -17z m239 -55 c-8 -15 -10 -15 -11 -2 0 17 10 32 18 25 2 -3 -1 -13
-7 -23z m139 17 c0 -5 -10 -20 -22 -32 -27 -27 -39 -6 -12 23 19 21 34 25 34
9z m-172 -60 c-1 -29 -1 -30 -16 -9 -12 18 -13 23 -1 30 8 5 15 9 16 9 1 0 1
-14 1 -30z m26 -119 c-5 -9 -8 -32 -9 -51 -1 -39 -12 -63 -25 -55 -5 3 -16 -5
-24 -17 -27 -38 -31 -10 -7 45 13 28 24 61 24 72 2 24 15 35 34 28 9 -4 11
-12 7 -22z m995 -125 c14 -17 8 -125 -10 -175 -9 -26 -9 -36 -1 -39 15 -5 16
-52 2 -52 -5 0 -10 7 -10 15 0 8 -2 15 -4 15 -2 0 -11 3 -20 6 -13 5 -16 -1
-16 -25 0 -33 -10 -40 -28 -18 -8 10 -4 24 18 58 17 24 30 52 30 61 0 9 4 19
9 22 13 9 21 93 11 121 -10 27 1 33 19 11z m-46 -78 c3 -58 -19 -60 -26 -2 -3
26 -2 54 1 62 8 23 23 -11 25 -60z m-738 -21 c0 -54 5 -79 19 -100 23 -34 41
-22 27 16 -6 15 -9 27 -7 27 12 0 66 -33 66 -41 0 -6 5 -7 10 -4 6 3 10 16 10
27 0 26 47 108 62 108 11 0 9 -8 -17 -80 -19 -51 -19 -56 -10 -129 6 -50 5
-53 -12 -46 -10 4 -26 10 -36 12 -9 3 -20 16 -23 29 -8 31 -34 54 -34 29 0
-39 -57 26 -59 67 -1 9 -11 24 -23 32 -19 14 -20 19 -10 53 6 21 14 48 18 61
10 40 19 13 19 -61z m248 45 c-5 -14 -3 -14 9 2 21 27 31 5 14 -35 -14 -34 -9
-73 20 -136 18 -40 18 -46 -4 -34 -17 9 -26 25 -62 103 -12 25 -8 97 6 120 9
14 23 -2 17 -20z m433 -2 c0 -11 -6 -20 -13 -20 -16 0 -17 12 -1 28 7 7 12 12
13 12 0 0 1 -9 1 -20z m-594 -42 c-7 -7 -12 -8 -12 -2 0 14 12 26 19 19 2 -3
-1 -11 -7 -17z m-57 2 c3 -5 1 -10 -4 -10 -6 0 -11 5 -11 10 0 6 2 10 4 10 3
0 8 -4 11 -10z m81 -58 c-4 -3 -11 -1 -18 6 -8 8 -8 15 3 28 13 16 14 16 17
-5 2 -13 1 -25 -2 -29z m414 -12 c0 -5 -5 -10 -11 -10 -5 0 -7 5 -4 10 3 6 8
10 11 10 2 0 4 -4 4 -10z m-320 -51 c0 -28 5 -59 10 -70 8 -13 7 -19 0 -19 -6
0 -13 8 -16 18 -3 9 -10 26 -14 37 -15 35 -9 85 10 85 5 0 10 -23 10 -51z
m288 -7 c-9 -9 -19 -27 -22 -39 -5 -14 -15 -23 -27 -23 -10 0 -19 -5 -19 -11
0 -6 -13 -1 -30 11 -18 13 -27 26 -23 35 7 20 23 19 23 -1 0 -13 6 -15 28 -10
32 8 52 31 52 61 0 31 13 40 24 16 6 -15 5 -26 -6 -39z m92 48 c0 -5 -2 -10
-4 -10 -3 0 -8 5 -11 10 -3 6 -1 10 4 10 6 0 11 -4 11 -10z m-603 -42 c-3 -8
-6 -5 -6 6 -1 11 2 17 5 13 3 -3 4 -12 1 -19z m600 -20 c-3 -7 -5 -2 -5 12 0
14 2 19 5 13 2 -7 2 -19 0 -25z m-47 -542 c0 -3 -4 -8 -10 -11 -5 -3 -10 -1
-10 4 0 6 5 11 10 11 6 0 10 -2 10 -4z m-4536 -578 c-3 -4 -11 -5 -19 -2 -11
5 -12 9 -2 19 12 13 31 -1 21 -17z m16 -468 c0 -5 -2 -10 -4 -10 -3 0 -8 5
-11 10 -3 6 -1 10 4 10 6 0 11 -4 11 -10z m-15 -190 c-3 -5 -11 -10 -16 -10
-6 0 -7 5 -4 10 3 6 11 10 16 10 6 0 7 -4 4 -10z"/>
<path d="M5995 7930 c-3 -5 -1 -10 4 -10 6 0 11 5 11 10 0 6 -2 10 -4 10 -3 0
-8 -4 -11 -10z"/>
<path d="M5615 7609 c-4 -6 -5 -12 -2 -15 2 -3 7 2 10 11 7 17 1 20 -8 4z"/>
<path d="M6700 7876 c0 -17 16 -30 23 -19 3 5 -1 14 -9 21 -12 10 -14 10 -14
-2z"/>
<path d="M6370 7811 c0 -6 4 -12 9 -15 13 -8 1 -46 -14 -46 -8 0 -21 -7 -29
-16 -18 -17 -38 -11 -30 10 6 16 -12 31 -21 17 -4 -7 -15 -7 -31 -1 -31 12
-34 12 -34 1 0 -5 9 -13 20 -16 12 -4 20 -15 20 -30 0 -35 24 -37 69 -3 23 16
41 26 41 21 0 -5 18 -7 40 -5 45 5 54 27 16 41 -13 5 -26 19 -29 30 -5 21 -27
30 -27 12z"/>
<path d="M6752 7808 c2 -6 14 -18 26 -26 20 -13 22 -13 22 6 0 11 -7 23 -16
26 -24 9 -36 7 -32 -6z"/>
<path d="M6670 7778 c0 -9 7 -18 15 -22 8 -3 15 -12 15 -21 0 -8 5 -15 10 -15
18 0 10 26 -15 50 -19 18 -25 20 -25 8z"/>
<path d="M6486 7731 c-18 -7 -16 -9 12 -19 39 -13 41 -29 5 -38 -24 -6 -24 -8
-9 -19 12 -9 27 -10 56 -3 34 9 38 13 29 29 -5 11 -16 19 -24 19 -8 0 -19 9
-25 20 -12 22 -15 22 -44 11z"/>
<path d="M6580 7731 c0 -5 12 -16 26 -26 14 -9 23 -22 20 -30 -2 -7 2 -21 9
-32 14 -17 14 -17 15 1 0 14 5 17 21 13 15 -4 27 1 39 16 21 26 16 44 -6 22
-21 -21 -44 -19 -44 4 0 23 -16 36 -25 21 -4 -6 -12 -5 -21 5 -17 17 -34 20
-34 6z"/>
<path d="M5891 7671 c-37 -10 -41 -34 -4 -25 35 9 43 13 43 25 0 10 -4 10 -39
0z"/>
<path d="M6786 7659 c9 -10 25 -19 36 -19 30 0 20 16 -18 28 -35 10 -36 10
-18 -9z"/>
<path d="M7240 7620 c0 -14 48 -35 58 -26 8 9 -26 36 -45 36 -7 0 -13 -5 -13
-10z"/>
<path d="M7355 7620 c-3 -5 -4 -14 -1 -19 4 -5 1 -11 -5 -13 -7 -2 4 -4 25 -4
40 0 42 3 22 29 -15 19 -32 22 -41 7z"/>
<path d="M6190 7610 c-8 -5 -11 -12 -8 -15 4 -4 17 0 30 9 24 17 5 23 -22 6z"/>
<path d="M6565 7600 c3 -5 8 -10 11 -10 2 0 4 5 4 10 0 6 -5 10 -11 10 -5 0
-7 -4 -4 -10z"/>
<path d="M5830 7593 c-8 -4 -32 -18 -52 -34 -56 -40 -20 -48 38 -8 53 36 61
60 14 42z"/>
<path d="M6790 7580 c0 -5 5 -10 11 -10 5 0 7 5 4 10 -3 6 -8 10 -11 10 -2 0
-4 -4 -4 -10z"/>
<path d="M6826 7571 c-3 -4 10 -15 29 -24 21 -10 37 -13 40 -7 4 6 -2 13 -12
16 -10 3 -26 10 -35 15 -9 5 -19 5 -22 0z"/>
<path d="M5881 7544 c0 -11 3 -14 6 -6 3 7 2 16 -1 19 -3 4 -6 -2 -5 -13z"/>
<path d="M7442 7548 c6 -18 28 -21 28 -4 0 9 -7 16 -16 16 -9 0 -14 -5 -12
-12z"/>
<path d="M5691 7520 c-12 -17 -19 -30 -15 -30 12 0 53 50 45 54 -4 3 -18 -8
-30 -24z"/>
<path d="M7290 7530 c0 -5 7 -10 15 -10 8 0 15 5 15 10 0 6 -7 10 -15 10 -8 0
-15 -4 -15 -10z"/>
<path d="M5808 7500 c-21 -20 -23 -30 -5 -30 24 0 40 17 31 32 -8 13 -11 13
-26 -2z"/>
<path d="M7330 7510 c0 -5 5 -10 11 -10 5 0 7 5 4 10 -3 6 -8 10 -11 10 -2 0
-4 -4 -4 -10z"/>
<path d="M7360 7480 c0 -5 5 -10 10 -10 6 0 15 -10 20 -22 5 -13 9 -16 9 -8 0
16 -22 50 -33 50 -3 0 -6 -4 -6 -10z"/>
<path d="M5925 7470 c-3 -5 -2 -10 4 -10 5 0 13 5 16 10 3 6 2 10 -4 10 -5 0
-13 -4 -16 -10z"/>
<path d="M5013 7423 c-18 -7 -16 -33 2 -33 8 0 15 2 15 4 0 2 3 11 6 20 6 16
0 19 -23 9z"/>
<path d="M5816 7421 c-20 -8 -11 -19 12 -15 6 1 17 2 23 3 5 0 7 6 4 11 -7 11
-12 12 -39 1z"/>
<path d="M7470 7373 c1 -14 27 -43 39 -43 16 0 13 15 -7 33 -20 18 -32 22 -32
10z"/>
<path d="M7545 7370 c-4 -6 -4 -22 -1 -36 5 -20 12 -24 45 -24 22 0 46 -3 55
-6 9 -3 16 -2 16 4 0 6 -14 15 -32 21 -18 6 -42 21 -54 32 -15 14 -24 17 -29
9z"/>
<path d="M7510 7300 c0 -5 7 -10 15 -10 8 0 15 5 15 10 0 6 -7 10 -15 10 -8 0
-15 -4 -15 -10z"/>
<path d="M7583 7265 c0 -8 6 -15 13 -15 7 0 18 -9 24 -20 6 -12 21 -20 35 -20
33 0 33 28 0 36 -13 3 -29 12 -36 20 -15 18 -36 18 -36 -1z"/>
<path d="M7460 7259 c0 -13 32 -70 37 -65 3 3 -4 20 -16 38 -11 18 -21 30 -21
27z"/>
<path d="M7584 7187 c3 -10 6 -21 6 -23 0 -3 5 -2 11 2 8 4 9 0 4 -15 -5 -15
-2 -21 9 -21 20 0 23 -21 11 -75 -4 -18 -3 -25 2 -18 10 14 27 5 36 -19 3 -10
15 -18 26 -18 10 0 22 -8 25 -17 5 -12 9 -14 18 -5 9 9 6 19 -13 39 -14 16
-31 41 -37 56 -7 15 -19 30 -27 33 -8 4 -13 10 -10 14 2 4 -11 25 -31 46 -20
22 -33 31 -30 21z"/>
<path d="M7518 7183 c7 -3 16 -2 19 1 4 3 -2 6 -13 5 -11 0 -14 -3 -6 -6z"/>
<path d="M7562 7118 c6 -18 28 -21 28 -4 0 9 -7 16 -16 16 -9 0 -14 -5 -12
-12z"/>
<path d="M4762 7108 c-16 -16 -15 -43 2 -57 16 -14 31 1 41 42 6 22 4 27 -12
27 -10 0 -24 -5 -31 -12z"/>
<path d="M7696 6929 c-8 -18 9 -69 24 -69 12 0 13 13 1 26 -5 5 -11 20 -13 34
-4 19 -6 21 -12 9z"/>
<path d="M7051 6904 c0 -11 3 -14 6 -6 3 7 2 16 -1 19 -3 4 -6 -2 -5 -13z"/>
<path d="M7675 6850 c3 -5 8 -10 11 -10 2 0 4 5 4 10 0 6 -5 10 -11 10 -5 0
-7 -4 -4 -10z"/>
<path d="M7712 6743 c8 -10 18 -27 23 -38 5 -13 9 -16 12 -7 6 15 -23 62 -39
62 -7 0 -5 -7 4 -17z"/>
<path d="M7775 6370 c4 -19 13 -40 21 -46 8 -6 14 -21 14 -32 0 -11 5 -24 12
-28 22 -14 -2 78 -29 110 l-26 31 8 -35z"/>
<path d="M7040 6293 c0 -7 -7 -13 -17 -13 -14 0 -14 -2 3 -21 47 -52 81 -38
38 16 -13 17 -24 24 -24 18z"/>
<path d="M7215 6270 c3 -5 10 -10 16 -10 5 0 9 5 9 10 0 6 -7 10 -16 10 -8 0
-12 -4 -9 -10z"/>
<path d="M4494 6236 c-8 -22 -2 -27 16 -16 12 7 12 12 3 21 -10 10 -14 9 -19
-5z"/>
<path d="M7585 6233 c4 -10 10 -30 13 -45 4 -27 16 -36 25 -20 7 11 -24 82
-35 82 -6 0 -7 -8 -3 -17z"/>
<path d="M4041 6178 c1 -7 5 -24 9 -38 8 -23 8 -22 7 8 -1 19 -5 36 -9 38 -4
3 -8 -1 -7 -8z"/>
<path d="M4480 6171 c0 -10 19 -25 25 -20 1 2 -3 10 -11 17 -8 7 -14 8 -14 3z"/>
<path d="M7405 6120 c3 -5 8 -10 11 -10 2 0 4 5 4 10 0 6 -5 10 -11 10 -5 0
-7 -4 -4 -10z"/>
<path d="M7460 6113 c0 -13 5 -23 10 -23 13 0 13 11 0 30 -8 12 -10 11 -10 -7z"/>
<path d="M4050 6084 c0 -3 7 -12 15 -20 13 -13 15 -13 15 -1 0 8 -7 17 -15 21
-8 3 -15 3 -15 0z"/>
<path d="M4050 5945 c0 -8 2 -15 4 -15 2 0 6 7 10 15 3 8 1 15 -4 15 -6 0 -10
-7 -10 -15z"/>
<path d="M7845 5768 c-37 -20 -47 -40 -27 -54 15 -11 15 -16 4 -34 -12 -19
-11 -21 5 -16 22 7 37 -2 46 -28 4 -11 13 -16 22 -12 11 4 15 -2 15 -20 0 -22
3 -24 22 -18 25 7 47 32 48 51 0 17 -57 125 -72 135 -18 11 -39 10 -63 -4z"/>
<path d="M6242 5642 c-25 -2 -31 -6 -23 -16 10 -12 9 -29 -3 -57 -6 -14 -13
-15 -44 -6 -20 6 -45 17 -54 25 -33 27 -98 11 -98 -24 0 -10 -6 -11 -25 -4
-14 5 -31 7 -38 4 -7 -2 -27 2 -43 11 -37 19 -81 19 -101 -1 -10 -10 -19 -12
-26 -5 -9 9 -24 7 -62 -10 -11 -5 -58 -20 -105 -35 -47 -14 -90 -31 -97 -36
-7 -5 -16 -7 -21 -4 -6 3 -36 -3 -68 -15 -95 -32 -114 -38 -114 -33 0 3 -7 -2
-16 -10 -8 -9 -26 -16 -39 -16 -13 0 -27 -5 -30 -10 -4 -6 -11 -7 -17 -4 -7 5
-9 -2 -5 -19 4 -14 1 -39 -9 -58 l-15 -34 5 43 c2 23 3 42 1 42 -1 0 -10 -12
-20 -26 -15 -23 -15 -27 -1 -43 12 -13 28 -16 70 -13 58 3 96 -9 96 -33 0 -7
10 -15 23 -17 18 -2 22 -9 21 -35 -1 -18 0 -33 3 -33 3 0 18 11 35 25 16 14
34 25 39 25 16 0 9 -37 -11 -55 -11 -10 -20 -27 -20 -39 0 -11 -1 -37 -3 -56
-1 -25 2 -34 11 -32 8 1 11 -2 7 -8 -3 -5 1 -13 9 -16 9 -3 16 -14 16 -24 0
-10 9 -20 20 -23 11 -3 20 -11 20 -19 0 -12 42 -38 62 -38 18 0 6 19 -14 23
-20 3 -21 5 -6 11 11 5 23 2 33 -8 9 -9 21 -16 26 -16 5 0 9 -7 9 -15 0 -8 5
-15 10 -15 6 0 10 5 10 11 0 7 7 8 18 4 9 -4 46 -9 82 -12 58 -5 63 -4 51 10
-7 9 -10 21 -6 28 4 6 2 15 -5 19 -8 5 -10 18 -5 39 6 30 27 41 40 21 3 -5 11
-10 16 -10 6 0 7 4 4 10 -3 5 0 7 9 4 8 -3 25 0 38 8 13 7 30 13 38 13 9 0 16
11 18 30 l3 30 -20 -25 c-20 -25 -21 -25 -21 -3 0 38 -29 38 -43 1 -10 -27
-30 -22 -25 6 5 23 2 24 -23 19 -18 -3 -29 -1 -29 6 0 6 -8 11 -18 11 -10 0
-27 7 -38 15 -12 8 -25 11 -29 7 -4 -4 -4 3 0 16 5 16 1 30 -11 43 -16 18 -16
20 -1 37 10 10 17 26 17 35 0 9 5 19 10 22 6 3 10 1 10 -6 0 -12 10 -24 83
-100 49 -51 84 -62 150 -47 56 12 93 42 134 105 31 49 37 54 61 48 37 -9 74
-34 67 -46 -7 -10 3 -15 56 -23 l37 -6 -7 32 c-5 22 -16 37 -34 46 -28 14 -38
39 -11 28 9 -3 21 -6 28 -6 18 0 76 -57 76 -74 0 -9 4 -16 9 -16 5 0 17 -3 26
-6 10 -4 15 -2 13 7 -2 9 10 15 35 19 21 3 38 9 38 14 2 16 -119 84 -175 100
-51 14 -109 22 -241 31 -74 6 -89 11 -59 20 10 4 34 14 52 23 19 9 59 17 89
19 33 1 73 11 97 24 22 12 55 22 71 24 39 2 87 15 102 27 7 5 17 7 22 4 5 -4
12 -2 15 3 16 25 -159 118 -212 113z m-282 -322 c0 -5 -4 -10 -10 -10 -5 0
-10 5 -10 10 0 6 5 10 10 10 6 0 10 -4 10 -10z m-417 -97 c2 -5 7 -20 11 -35
5 -20 3 -28 -7 -28 -16 0 -36 39 -30 58 5 13 19 16 26 5z"/>
<path d="M6158 5623 c-25 -6 -22 -20 4 -19 12 0 23 7 26 14 4 12 0 13 -30 5z"/>
<path d="M6531 5554 c0 -11 3 -14 6 -6 3 7 2 16 -1 19 -3 4 -6 -2 -5 -13z"/>
<path d="M6575 5510 c4 -6 11 -8 16 -5 14 9 11 15 -7 15 -8 0 -12 -5 -9 -10z"/>
<path d="M7900 5476 c0 -8 5 -18 10 -21 6 -3 10 1 10 9 0 8 -4 18 -10 21 -5 3
-10 -1 -10 -9z"/>
<path d="M7911 5399 c-1 -19 9 -73 20 -119 15 -58 20 -101 16 -139 -4 -43 -3
-50 5 -31 5 14 13 62 16 106 7 72 6 83 -10 93 -10 6 -18 19 -19 29 0 9 -6 35
-14 57 l-13 40 -1 -36z"/>
<path d="M7548 5275 c-13 -30 -5 -52 28 -69 10 -6 21 -14 24 -18 3 -4 12 -3
19 1 21 13 4 68 -30 91 l-29 21 -12 -26z"/>
<path d="M6508 5243 c7 -3 16 -2 19 1 4 3 -2 6 -13 5 -11 0 -14 -3 -6 -6z"/>
<path d="M7725 4999 c4 -11 1 -26 -5 -34 -7 -8 -10 -15 -6 -15 14 0 -27 -77
-56 -107 -40 -41 -25 -42 29 -3 44 33 58 61 62 126 1 30 -3 43 -14 48 -13 5
-15 1 -10 -15z"/>
<path d="M5630 4272 c0 -5 13 -26 30 -48 16 -21 30 -43 30 -47 0 -5 15 -23 33
-42 17 -18 61 -66 97 -106 106 -120 172 -179 197 -179 9 0 13 -6 10 -14 -8
-20 4 -28 20 -14 10 8 20 8 41 -3 15 -8 29 -16 32 -19 3 -3 15 -11 28 -18 22
-12 23 -12 12 8 -6 11 -17 20 -25 20 -17 0 -20 17 -4 22 6 2 -1 17 -16 33 -46
54 -50 59 -47 72 2 7 -4 13 -13 13 -8 0 -15 6 -15 13 -1 28 -99 115 -118 103
-5 -3 -19 12 -31 34 -14 26 -27 37 -36 33 -8 -3 -15 0 -15 6 0 6 -11 16 -25
21 -14 5 -25 16 -25 24 0 8 -21 25 -47 38 -27 13 -51 27 -55 33 -4 5 -8 6 -8
1 0 -4 -11 -1 -25 8 -14 9 -25 13 -25 8z"/>
<path d="M7240 3775 c0 -8 5 -15 10 -15 6 0 10 7 10 15 0 8 -4 15 -10 15 -5 0
-10 -7 -10 -15z"/>
<path d="M7210 3746 c-5 -14 -14 -26 -20 -26 -25 0 -45 -96 -25 -117 21 -21
33 -15 27 12 -3 19 3 32 22 50 18 17 26 34 26 59 0 43 -17 56 -30 22z"/>
<path d="M5957 3748 c-10 -5 -24 -7 -32 -4 -7 2 -16 -2 -19 -9 -3 -9 -12 -12
-23 -8 -14 5 -16 3 -6 -7 8 -9 9 -19 1 -36 -6 -13 -14 -24 -18 -24 -7 0 -17
-24 -25 -60 -2 -8 1 -20 6 -27 15 -17 3 -32 -20 -26 -12 3 -20 -2 -24 -16 -4
-15 0 -21 11 -21 12 0 13 -3 4 -12 -7 -7 -12 -19 -12 -28 0 -8 -12 -26 -25
-39 -14 -13 -25 -27 -25 -32 0 -5 25 -7 56 -4 47 3 58 1 72 -17 9 -11 38 -41
65 -66 26 -25 47 -54 47 -65 0 -10 9 -26 20 -35 11 -10 29 -40 40 -68 18 -49
18 -52 1 -80 -14 -23 -16 -36 -8 -54 6 -16 11 -20 14 -12 4 10 8 10 19 2 10
-9 11 -16 1 -30 -9 -15 -7 -23 8 -40 16 -18 17 -24 7 -41 -10 -15 -10 -23 0
-39 19 -31 28 -24 28 21 0 27 4 38 11 33 12 -7 7 -98 -6 -142 -7 -21 -5 -22
18 -13 27 11 37 0 37 -41 0 -25 24 -18 28 8 6 39 12 48 23 37 8 -8 19 -6 40 6
32 18 40 60 14 81 -8 7 -15 20 -15 28 0 13 3 12 14 -4 14 -18 15 -18 19 6 9
50 5 79 -9 73 -10 -4 -14 5 -14 33 0 52 -16 78 -25 41 -4 -14 -5 -32 -3 -39 6
-18 -12 -34 -45 -40 -22 -4 -27 -2 -27 16 0 12 -9 27 -20 34 -11 7 -20 19 -20
26 0 21 21 31 31 15 4 -7 11 -10 15 -6 4 3 2 13 -4 20 -7 8 -8 18 -4 22 4 5 1
5 -6 1 -7 -4 -15 0 -19 11 -4 10 -15 26 -26 35 -22 20 -18 69 7 97 15 17 16
19 16 50 0 11 7 27 16 36 14 13 16 30 11 91 -3 40 -1 76 4 79 5 4 3 16 -5 28
-7 12 -17 35 -20 50 -5 20 -11 27 -21 23 -18 -6 -20 5 -4 21 8 8 0 25 -27 62
-21 28 -44 51 -50 51 -7 0 -14 7 -17 14 -10 24 -60 46 -80 34z m161 -223 c-3
-3 -9 2 -12 12 -6 14 -5 15 5 6 7 -7 10 -15 7 -18z m142 -615 c0 -28 -24 -72
-59 -110 -13 -13 -14 -13 -6 5 5 11 9 39 8 63 0 30 4 42 14 42 7 0 16 7 19 15
10 26 24 17 24 -15z m10 -110 c0 -11 -4 -20 -9 -20 -14 0 -23 18 -16 30 10 17
25 11 25 -10z"/>
<path d="M5291 3724 c0 -11 3 -14 6 -6 3 7 2 16 -1 19 -3 4 -6 -2 -5 -13z"/>
<path d="M5310 3680 c0 -5 5 -10 11 -10 5 0 7 5 4 10 -3 6 -8 10 -11 10 -2 0
-4 -4 -4 -10z"/>
<path d="M7115 3600 c3 -5 8 -10 11 -10 2 0 4 5 4 10 0 6 -5 10 -11 10 -5 0
-7 -4 -4 -10z"/>
<path d="M5424 3567 c-15 -18 -23 -67 -11 -67 5 0 15 -7 22 -17 7 -9 17 -13
23 -9 16 10 15 36 -1 36 -9 0 -12 11 -9 35 4 36 -5 44 -24 22z"/>
<path d="M7107 3573 c-3 -5 -8 -22 -11 -40 -8 -34 6 -52 27 -35 7 6 23 12 37
14 19 2 26 10 28 31 2 19 -1 27 -12 27 -9 0 -16 -5 -16 -12 0 -6 -7 -4 -18 5
-20 19 -29 21 -35 10z"/>
<path d="M5670 3556 c0 -10 -7 -12 -22 -8 -18 4 -20 2 -16 -16 4 -15 0 -23
-13 -27 -10 -4 -19 -10 -19 -14 0 -16 27 -39 59 -50 46 -15 50 -14 44 8 -6 24
-43 36 -43 14 0 -11 -6 -8 -19 8 -13 16 -16 26 -8 31 6 4 15 4 19 1 5 -2 15 1
23 7 17 14 20 60 5 60 -5 0 -10 -6 -10 -14z"/>
<path d="M5725 3450 c-3 -5 -1 -10 4 -10 6 0 11 5 11 10 0 6 -2 10 -4 10 -3 0
-8 -4 -11 -10z"/>
<path d="M7025 3450 c-3 -6 5 -14 19 -19 l24 -10 -19 -38 c-22 -42 -24 -60 -8
-65 7 -2 7 -12 -2 -31 -14 -31 -34 -37 -26 -7 4 15 0 20 -13 20 -11 0 -22 -4
-25 -10 -3 -5 -1 -10 6 -10 9 0 9 -3 0 -14 -12 -14 -18 -60 -10 -86 2 -8 -3
-15 -11 -15 -8 0 -21 -4 -28 -9 -7 -4 -18 -3 -25 3 -19 15 -46 -4 -29 -21 20
-20 14 -48 -14 -58 -32 -13 -37 -12 -29 0 3 6 2 10 -4 10 -17 0 -25 -23 -22
-67 3 -43 -5 -53 -26 -32 -14 14 -43 -37 -43 -76 0 -27 -9 -32 -28 -13 -6 6
-13 10 -15 7 -50 -62 -58 -79 -48 -98 15 -27 14 -41 -4 -41 -10 0 -15 10 -15
34 0 44 -14 53 -29 20 -6 -14 -16 -22 -21 -19 -6 3 -10 2 -10 -2 0 -14 -38
-33 -55 -27 -8 3 -15 18 -15 33 l-1 26 -29 -34 c-18 -22 -34 -32 -44 -28 -22
9 -20 -6 4 -28 10 -9 18 -21 17 -25 -2 -9 3 -10 31 -10 16 1 16 2 -2 15 -12 9
-16 20 -12 32 7 16 9 15 21 -7 8 -14 14 -19 15 -12 0 17 30 15 30 -2 0 -8 3
-21 6 -30 5 -12 0 -16 -20 -16 -20 0 -27 -6 -31 -27 -4 -16 -10 -36 -16 -45
-5 -10 -9 -25 -9 -34 0 -13 -3 -14 -15 -4 -8 7 -15 18 -15 26 0 7 -10 18 -21
25 -15 8 -19 8 -15 0 4 -6 2 -11 -3 -11 -6 0 -11 5 -11 10 0 6 -7 10 -15 10
-8 0 -15 -9 -15 -20 0 -11 5 -20 10 -20 6 0 10 -4 10 -10 0 -5 -6 -10 -12 -10
-7 0 -19 -4 -26 -9 -11 -7 -12 -12 -1 -29 10 -16 10 -26 1 -44 -6 -13 -13 -36
-15 -53 l-4 -30 -8 33 c-8 35 -14 39 -33 20 -8 -8 -14 -5 -22 16 -5 15 -10 34
-10 43 0 13 -3 13 -15 3 -9 -8 -13 -21 -9 -36 3 -13 3 -32 -1 -41 -6 -17 -7
-17 -16 0 -17 29 -32 20 -26 -16 4 -26 1 -36 -14 -45 -10 -7 -19 -18 -19 -26
0 -7 -6 -19 -14 -26 -8 -6 -16 -23 -18 -37 -3 -22 -8 -26 -38 -28 -19 -1 -43
2 -52 7 -24 11 -23 3 2 -22 22 -22 25 -46 10 -70 -8 -12 -10 -9 -10 13 0 52
-16 27 -36 -60 -22 -93 -22 -112 3 -75 9 12 25 22 37 22 11 0 32 7 46 15 14 7
39 21 55 30 56 29 71 40 103 73 25 26 37 31 57 26 19 -5 32 0 49 17 40 41 86
79 94 79 7 0 82 65 117 100 6 5 31 31 58 57 26 26 47 52 47 59 0 7 18 25 39
41 30 21 39 33 35 48 -3 12 3 32 15 47 12 14 21 29 21 33 0 4 18 28 40 52 23
24 49 63 59 86 10 24 31 51 46 61 25 16 25 19 11 35 -21 24 -20 38 4 44 12 3
20 14 20 25 0 12 5 24 10 27 6 3 10 20 10 36 0 24 6 32 29 40 25 9 29 17 35
59 7 51 26 76 51 66 8 -3 15 -4 15 -3 0 1 -4 17 -10 36 -10 38 1 71 25 71 8 0
15 7 15 15 0 8 -4 15 -10 15 -5 0 -7 13 -3 32 5 26 3 30 -10 25 -9 -3 -18 0
-21 9 -6 16 -42 19 -51 4z m-628 -910 c1 -11 -2 -20 -8 -20 -5 0 -9 9 -9 20 0
11 4 20 8 20 4 0 8 -9 9 -20z"/>
<path d="M5188 3353 c7 -3 16 -2 19 1 4 3 -2 6 -13 5 -11 0 -14 -3 -6 -6z"/>
<path d="M5220 3329 c0 -5 5 -7 10 -4 6 3 10 8 10 11 0 2 -4 4 -10 4 -5 0 -10
-5 -10 -11z"/>
<path d="M5545 3330 c-7 -12 22 -12 50 0 17 7 15 9 -12 9 -17 1 -35 -3 -38 -9z"/>
<path d="M5660 3319 c0 -5 5 -7 10 -4 6 3 10 8 10 11 0 2 -4 4 -10 4 -5 0 -10
-5 -10 -11z"/>
<path d="M6445 3161 c-3 -6 0 -11 9 -11 8 0 17 -6 20 -12 3 -7 5 -4 3 6 -2 22
-22 32 -32 17z"/>
<path d="M6332 3104 c-12 -8 -22 -10 -22 -5 0 6 -5 11 -11 11 -21 0 -3 -34 21
-40 16 -4 24 -12 22 -22 -1 -9 6 -19 17 -23 11 -3 23 -16 27 -28 3 -12 13 -30
22 -40 11 -13 13 -23 5 -40 -12 -28 -6 -54 14 -61 13 -5 14 -4 3 9 -16 19 -6
43 22 54 13 5 30 20 37 34 13 24 12 28 -10 51 -13 14 -32 26 -41 26 -10 0 -18
6 -18 13 0 6 -9 23 -20 37 -17 21 -21 23 -31 10 -8 -12 -9 -10 -4 8 7 26 -2
28 -33 6z"/>
<path d="M6510 3100 c0 -5 5 -10 10 -10 6 0 10 5 10 10 0 6 -4 10 -10 10 -5 0
-10 -4 -10 -10z"/>
<path d="M4765 3070 c3 -5 8 -10 11 -10 2 0 4 5 4 10 0 6 -5 10 -11 10 -5 0
-7 -4 -4 -10z"/>
<path d="M6734 3049 c-3 -6 -1 -16 5 -22 8 -8 11 -5 11 11 0 24 -5 28 -16 11z"/>
<path d="M6185 3010 c-3 -5 1 -10 9 -10 9 0 16 5 16 10 0 6 -4 10 -9 10 -6 0
-13 -4 -16 -10z"/>
<path d="M6515 2950 c3 -5 8 -10 11 -10 2 0 4 5 4 10 0 6 -5 10 -11 10 -5 0
-7 -4 -4 -10z"/>
<path d="M6030 2914 c0 -8 5 -12 10 -9 6 4 8 11 5 16 -9 14 -15 11 -15 -7z"/>
<path d="M5180 2895 c7 -8 16 -15 21 -15 5 0 6 7 3 15 -4 8 -13 15 -21 15 -13
0 -13 -3 -3 -15z"/>
<path d="M6471 2876 c-9 -11 -9 -16 0 -21 10 -7 28 10 29 28 0 12 -17 8 -29
-7z"/>
<path d="M5960 2811 c0 -5 7 -11 14 -14 10 -4 13 -1 9 9 -6 15 -23 19 -23 5z"/>
<path d="M5925 2770 c10 -11 20 -18 23 -15 7 6 -18 35 -31 35 -5 0 -2 -9 8
-20z"/>
<path d="M5120 2760 c0 -11 7 -20 15 -20 8 0 15 9 15 20 0 11 -7 20 -15 20 -8
0 -15 -9 -15 -20z"/>
<path d="M6045 2758 c-4 -18 -2 -34 8 -48 21 -30 26 -13 12 35 -12 39 -13 40
-20 13z"/>
<path d="M6280 2747 c0 -9 -7 -17 -15 -17 -8 0 -15 -5 -15 -11 0 -7 -8 -18
-17 -25 -10 -7 -15 -16 -11 -20 4 -4 14 -2 21 4 11 9 17 6 27 -14 l14 -25 14
47 c12 41 12 49 -2 63 -15 14 -16 14 -16 -2z"/>
<path d="M6353 2735 c-3 -9 -3 -18 0 -21 9 -9 27 6 27 22 0 19 -19 18 -27 -1z"/>
<path d="M5952 2723 c2 -10 10 -18 18 -18 8 0 16 8 18 18 2 12 -3 17 -18 17
-15 0 -20 -5 -18 -17z"/>
<path d="M5986 2663 c-4 -9 -1 -20 6 -25 21 -13 28 -9 28 17 0 28 -24 34 -34
8z"/>
<path d="M6331 2650 c0 -33 1 -34 11 -12 8 17 8 26 0 34 -9 9 -12 4 -11 -22z"/>
<path d="M5891 2604 c0 -11 3 -14 6 -6 3 7 2 16 -1 19 -3 4 -6 -2 -5 -13z"/>
<path d="M5980 2576 c0 -9 5 -16 10 -16 6 0 10 4 10 9 0 6 -4 13 -10 16 -5 3
-10 -1 -10 -9z"/>
<path d="M6105 2569 c-4 -6 -5 -13 -2 -16 7 -7 27 6 27 18 0 12 -17 12 -25 -2z"/>
<path d="M5791 2524 c0 -11 3 -14 6 -6 3 7 2 16 -1 19 -3 4 -6 -2 -5 -13z"/>
<path d="M4620 2471 c0 -5 5 -13 10 -16 6 -3 10 -2 10 4 0 5 -4 13 -10 16 -5
3 -10 2 -10 -4z"/>
<path d="M6089 2451 c17 -31 33 -37 29 -10 -2 13 -11 25 -21 27 -16 3 -17 1
-8 -17z"/>
<path d="M4611 2434 c0 -11 3 -14 6 -6 3 7 2 16 -1 19 -3 4 -6 -2 -5 -13z"/>
<path d="M4778 2403 c7 -3 16 -2 19 1 4 3 -2 6 -13 5 -11 0 -14 -3 -6 -6z"/>
<path d="M4580 2381 c0 -5 -8 -11 -19 -14 -10 -2 -20 -15 -23 -29 -4 -19 -1
-24 14 -23 10 1 22 6 27 11 14 15 22 64 11 64 -5 0 -10 -4 -10 -9z"/>
<path d="M5471 2324 c0 -11 3 -14 6 -6 3 7 2 16 -1 19 -3 4 -6 -2 -5 -13z"/>
<path d="M6055 2330 c-4 -6 -3 -16 3 -22 6 -6 12 -6 17 2 4 6 3 16 -3 22 -6 6
-12 6 -17 -2z"/>
<path d="M5310 2304 c0 -8 5 -12 10 -9 6 4 8 11 5 16 -9 14 -15 11 -15 -7z"/>
<path d="M4437 2296 c-3 -8 -3 -17 0 -20 9 -9 34 15 27 25 -8 13 -21 11 -27
-5z"/>
<path d="M5443 2255 c0 -30 4 -55 8 -55 5 0 9 25 9 55 0 30 -4 55 -9 55 -4 0
-8 -25 -8 -55z"/>
<path d="M5181 2284 c0 -11 3 -14 6 -6 3 7 2 16 -1 19 -3 4 -6 -2 -5 -13z"/>
<path d="M5686 2217 c-5 -10 -6 -33 -3 -52 3 -19 2 -49 -3 -67 -11 -38 -10
-40 12 -24 14 10 15 23 9 86 -5 51 -10 69 -15 57z"/>
<path d="M4481 2213 c-1 -6 -4 -20 -7 -30 -5 -17 -5 -17 6 0 6 10 9 23 6 30
-3 9 -5 9 -5 0z"/>
<path d="M4986 2204 c-4 -10 -1 -14 6 -12 15 5 23 28 10 28 -5 0 -13 -7 -16
-16z"/>
<path d="M5543 2165 c0 -33 2 -45 4 -27 2 18 2 45 0 60 -2 15 -4 0 -4 -33z"/>
<path d="M5934 2189 c-6 -8 -12 -21 -12 -29 -1 -8 -5 -30 -8 -47 -7 -38 9 -45
26 -13 15 28 9 109 -6 89z"/>
<path d="M5600 2160 c0 -19 3 -21 12 -12 9 9 9 15 0 24 -9 9 -12 7 -12 -12z"/>
<path d="M5453 2140 c-12 -28 -8 -39 8 -23 6 6 9 19 6 29 -3 17 -5 16 -14 -6z"/>
<path d="M5570 2104 c0 -8 5 -12 10 -9 6 3 10 10 10 16 0 5 -4 9 -10 9 -5 0
-10 -7 -10 -16z"/>
<path d="M5750 2085 c0 -8 5 -15 10 -15 6 0 10 7 10 15 0 8 -4 15 -10 15 -5 0
-10 -7 -10 -15z"/>
<path d="M5542 2070 c0 -14 2 -19 5 -12 2 6 2 18 0 25 -3 6 -5 1 -5 -13z"/>
<path d="M5583 2064 c-7 -18 11 -39 25 -30 12 7 4 46 -9 46 -6 0 -12 -7 -16
-16z"/>
<path d="M5463 2045 c-9 -25 4 -29 17 -6 7 15 7 21 0 21 -6 0 -13 -7 -17 -15z"/>
<path d="M5830 2049 c0 -5 5 -7 10 -4 6 3 10 8 10 11 0 2 -4 4 -10 4 -5 0 -10
-5 -10 -11z"/>
<path d="M5906 2035 c-23 -17 -13 -34 11 -19 19 12 29 34 16 34 -4 0 -17 -7
-27 -15z"/>
<path d="M5656 2014 c-9 -24 -2 -26 12 -4 7 11 8 20 3 20 -5 0 -12 -7 -15 -16z"/>
<path d="M5800 1995 c0 -8 -4 -15 -10 -15 -5 0 -10 -7 -10 -17 0 -14 2 -14 20
2 21 19 27 45 10 45 -5 0 -10 -7 -10 -15z"/>
<path d="M5634 1969 c-3 -6 -1 -16 5 -22 8 -8 11 -5 11 11 0 24 -5 28 -16 11z"/>
<path d="M5681 1934 c0 -11 3 -14 6 -6 3 7 2 16 -1 19 -3 4 -6 -2 -5 -13z"/>
<path d="M5603 1925 c-8 -22 6 -33 17 -15 13 20 12 30 0 30 -6 0 -13 -7 -17
-15z"/>
<path d="M4080 4980 c0 -16 4 -30 9 -30 10 0 22 40 15 52 -11 18 -24 6 -24
-22z"/>
<path d="M3660 4624 c0 -8 5 -12 10 -9 6 4 8 11 5 16 -9 14 -15 11 -15 -7z"/>
<path d="M3695 3711 c-3 -5 -1 -12 5 -16 5 -3 10 1 10 9 0 18 -6 21 -15 7z"/>
</g>
</svg>
